<mxfile host="app.diagrams.net" modified="2022-10-18T15:43:39.320Z" agent="5.0 (Windows NT 10.0; WOW64) AppleWebKit/537.36 (KHTML, like Gecko) Chrome/105.0.0.0 Safari/537.36" etag="qq2M49tgJP5yuyc8-_Z9" version="20.4.1" type="github">
  <diagram id="nh9QnjIoQJrBZczaWeRV" name="第 1 页">
    <mxGraphModel dx="1422" dy="794" grid="1" gridSize="10" guides="1" tooltips="1" connect="1" arrows="1" fold="1" page="1" pageScale="1" pageWidth="827" pageHeight="1169" math="0" shadow="0">
      <root>
        <mxCell id="0" />
        <mxCell id="1" parent="0" />
        <mxCell id="NF7Rj2SjJU0Dl5G_d9Kf-1" value="脚本A" style="swimlane;" vertex="1" parent="1">
          <mxGeometry x="60" y="110" width="150" height="490" as="geometry" />
        </mxCell>
        <mxCell id="NF7Rj2SjJU0Dl5G_d9Kf-2" value="运行SQL1" style="text;html=1;align=center;verticalAlign=middle;resizable=0;points=[];autosize=1;strokeColor=none;fillColor=none;" vertex="1" parent="NF7Rj2SjJU0Dl5G_d9Kf-1">
          <mxGeometry x="30" y="40" width="80" height="30" as="geometry" />
        </mxCell>
        <mxCell id="NF7Rj2SjJU0Dl5G_d9Kf-3" value="运行SQL2" style="text;html=1;align=center;verticalAlign=middle;resizable=0;points=[];autosize=1;strokeColor=none;fillColor=none;" vertex="1" parent="NF7Rj2SjJU0Dl5G_d9Kf-1">
          <mxGeometry x="30" y="70" width="80" height="30" as="geometry" />
        </mxCell>
        <mxCell id="NF7Rj2SjJU0Dl5G_d9Kf-4" value="运行SQL3" style="text;html=1;align=center;verticalAlign=middle;resizable=0;points=[];autosize=1;strokeColor=none;fillColor=none;" vertex="1" parent="NF7Rj2SjJU0Dl5G_d9Kf-1">
          <mxGeometry x="30" y="100" width="80" height="30" as="geometry" />
        </mxCell>
        <mxCell id="NF7Rj2SjJU0Dl5G_d9Kf-7" value="..........." style="text;html=1;align=center;verticalAlign=middle;resizable=0;points=[];autosize=1;strokeColor=none;fillColor=none;" vertex="1" parent="NF7Rj2SjJU0Dl5G_d9Kf-1">
          <mxGeometry x="40" y="130" width="60" height="30" as="geometry" />
        </mxCell>
        <mxCell id="NF7Rj2SjJU0Dl5G_d9Kf-8" value="wait_util 表a" style="text;html=1;align=center;verticalAlign=middle;resizable=0;points=[];autosize=1;strokeColor=none;fillColor=none;" vertex="1" parent="NF7Rj2SjJU0Dl5G_d9Kf-1">
          <mxGeometry x="30" y="160" width="90" height="30" as="geometry" />
        </mxCell>
        <mxCell id="NF7Rj2SjJU0Dl5G_d9Kf-24" value="运行SQL4" style="text;html=1;align=center;verticalAlign=middle;resizable=0;points=[];autosize=1;strokeColor=none;fillColor=none;" vertex="1" parent="NF7Rj2SjJU0Dl5G_d9Kf-1">
          <mxGeometry x="35" y="200" width="80" height="30" as="geometry" />
        </mxCell>
        <mxCell id="NF7Rj2SjJU0Dl5G_d9Kf-25" value="运行SQL5&lt;br&gt;" style="text;html=1;align=center;verticalAlign=middle;resizable=0;points=[];autosize=1;strokeColor=none;fillColor=none;" vertex="1" parent="NF7Rj2SjJU0Dl5G_d9Kf-1">
          <mxGeometry x="35" y="250" width="80" height="30" as="geometry" />
        </mxCell>
        <mxCell id="NF7Rj2SjJU0Dl5G_d9Kf-26" value="wait_util 表b" style="text;html=1;align=center;verticalAlign=middle;resizable=0;points=[];autosize=1;strokeColor=none;fillColor=none;" vertex="1" parent="NF7Rj2SjJU0Dl5G_d9Kf-1">
          <mxGeometry x="30" y="290" width="90" height="30" as="geometry" />
        </mxCell>
        <mxCell id="NF7Rj2SjJU0Dl5G_d9Kf-38" value="" style="endArrow=classic;html=1;rounded=0;" edge="1" parent="NF7Rj2SjJU0Dl5G_d9Kf-1" target="NF7Rj2SjJU0Dl5G_d9Kf-31">
          <mxGeometry width="50" height="50" relative="1" as="geometry">
            <mxPoint x="120" y="300" as="sourcePoint" />
            <mxPoint x="170" y="250" as="targetPoint" />
          </mxGeometry>
        </mxCell>
        <mxCell id="NF7Rj2SjJU0Dl5G_d9Kf-45" value="..........." style="text;html=1;align=center;verticalAlign=middle;resizable=0;points=[];autosize=1;strokeColor=none;fillColor=none;" vertex="1" parent="NF7Rj2SjJU0Dl5G_d9Kf-1">
          <mxGeometry x="40" y="350" width="60" height="30" as="geometry" />
        </mxCell>
        <mxCell id="NF7Rj2SjJU0Dl5G_d9Kf-9" value="使用示例" style="text;html=1;strokeColor=none;fillColor=none;align=center;verticalAlign=middle;whiteSpace=wrap;rounded=0;" vertex="1" parent="1">
          <mxGeometry x="330" y="50" width="60" height="30" as="geometry" />
        </mxCell>
        <mxCell id="NF7Rj2SjJU0Dl5G_d9Kf-10" value="脚本c" style="swimlane;" vertex="1" parent="1">
          <mxGeometry x="520" y="365" width="140" height="235" as="geometry" />
        </mxCell>
        <mxCell id="NF7Rj2SjJU0Dl5G_d9Kf-11" value="运行SQL1" style="text;html=1;align=center;verticalAlign=middle;resizable=0;points=[];autosize=1;strokeColor=none;fillColor=none;" vertex="1" parent="NF7Rj2SjJU0Dl5G_d9Kf-10">
          <mxGeometry x="30" y="40" width="80" height="30" as="geometry" />
        </mxCell>
        <mxCell id="NF7Rj2SjJU0Dl5G_d9Kf-12" value="运行SQL2" style="text;html=1;align=center;verticalAlign=middle;resizable=0;points=[];autosize=1;strokeColor=none;fillColor=none;" vertex="1" parent="NF7Rj2SjJU0Dl5G_d9Kf-10">
          <mxGeometry x="30" y="70" width="80" height="30" as="geometry" />
        </mxCell>
        <mxCell id="NF7Rj2SjJU0Dl5G_d9Kf-13" value="运行SQL3" style="text;html=1;align=center;verticalAlign=middle;resizable=0;points=[];autosize=1;strokeColor=none;fillColor=none;" vertex="1" parent="NF7Rj2SjJU0Dl5G_d9Kf-10">
          <mxGeometry x="30" y="100" width="80" height="30" as="geometry" />
        </mxCell>
        <mxCell id="NF7Rj2SjJU0Dl5G_d9Kf-14" value="..........." style="text;html=1;align=center;verticalAlign=middle;resizable=0;points=[];autosize=1;strokeColor=none;fillColor=none;" vertex="1" parent="NF7Rj2SjJU0Dl5G_d9Kf-10">
          <mxGeometry x="40" y="130" width="60" height="30" as="geometry" />
        </mxCell>
        <mxCell id="NF7Rj2SjJU0Dl5G_d9Kf-15" value="wake_up 表b" style="text;html=1;align=center;verticalAlign=middle;resizable=0;points=[];autosize=1;strokeColor=none;fillColor=none;" vertex="1" parent="NF7Rj2SjJU0Dl5G_d9Kf-10">
          <mxGeometry x="40" y="190" width="90" height="30" as="geometry" />
        </mxCell>
        <mxCell id="NF7Rj2SjJU0Dl5G_d9Kf-42" value="运行SQL 创建表b" style="text;html=1;strokeColor=none;fillColor=none;align=center;verticalAlign=middle;whiteSpace=wrap;rounded=0;" vertex="1" parent="NF7Rj2SjJU0Dl5G_d9Kf-10">
          <mxGeometry x="40" y="170" width="100" height="10" as="geometry" />
        </mxCell>
        <mxCell id="NF7Rj2SjJU0Dl5G_d9Kf-43" value="..........." style="text;html=1;align=center;verticalAlign=middle;resizable=0;points=[];autosize=1;strokeColor=none;fillColor=none;" vertex="1" parent="NF7Rj2SjJU0Dl5G_d9Kf-10">
          <mxGeometry x="45" y="205" width="60" height="30" as="geometry" />
        </mxCell>
        <mxCell id="NF7Rj2SjJU0Dl5G_d9Kf-16" value="脚本B" style="swimlane;" vertex="1" parent="1">
          <mxGeometry x="520" y="120" width="140" height="220" as="geometry" />
        </mxCell>
        <mxCell id="NF7Rj2SjJU0Dl5G_d9Kf-17" value="运行SQL1" style="text;html=1;align=center;verticalAlign=middle;resizable=0;points=[];autosize=1;strokeColor=none;fillColor=none;" vertex="1" parent="NF7Rj2SjJU0Dl5G_d9Kf-16">
          <mxGeometry x="30" y="40" width="80" height="30" as="geometry" />
        </mxCell>
        <mxCell id="NF7Rj2SjJU0Dl5G_d9Kf-18" value="运行SQL2" style="text;html=1;align=center;verticalAlign=middle;resizable=0;points=[];autosize=1;strokeColor=none;fillColor=none;" vertex="1" parent="NF7Rj2SjJU0Dl5G_d9Kf-16">
          <mxGeometry x="30" y="70" width="80" height="30" as="geometry" />
        </mxCell>
        <mxCell id="NF7Rj2SjJU0Dl5G_d9Kf-19" value="运行SQL3" style="text;html=1;align=center;verticalAlign=middle;resizable=0;points=[];autosize=1;strokeColor=none;fillColor=none;" vertex="1" parent="NF7Rj2SjJU0Dl5G_d9Kf-16">
          <mxGeometry x="30" y="100" width="80" height="30" as="geometry" />
        </mxCell>
        <mxCell id="NF7Rj2SjJU0Dl5G_d9Kf-20" value="..........." style="text;html=1;align=center;verticalAlign=middle;resizable=0;points=[];autosize=1;strokeColor=none;fillColor=none;" vertex="1" parent="NF7Rj2SjJU0Dl5G_d9Kf-16">
          <mxGeometry x="40" y="120" width="60" height="30" as="geometry" />
        </mxCell>
        <mxCell id="NF7Rj2SjJU0Dl5G_d9Kf-21" value="wake_up 表a" style="text;html=1;align=center;verticalAlign=middle;resizable=0;points=[];autosize=1;strokeColor=none;fillColor=none;" vertex="1" parent="NF7Rj2SjJU0Dl5G_d9Kf-16">
          <mxGeometry x="30" y="170" width="90" height="30" as="geometry" />
        </mxCell>
        <mxCell id="NF7Rj2SjJU0Dl5G_d9Kf-23" value="..........." style="text;html=1;align=center;verticalAlign=middle;resizable=0;points=[];autosize=1;strokeColor=none;fillColor=none;" vertex="1" parent="NF7Rj2SjJU0Dl5G_d9Kf-16">
          <mxGeometry x="40" y="180" width="60" height="30" as="geometry" />
        </mxCell>
        <mxCell id="NF7Rj2SjJU0Dl5G_d9Kf-32" value="运行SQL 创建表a" style="text;html=1;strokeColor=none;fillColor=none;align=center;verticalAlign=middle;whiteSpace=wrap;rounded=0;" vertex="1" parent="NF7Rj2SjJU0Dl5G_d9Kf-16">
          <mxGeometry x="40" y="150" width="100" height="10" as="geometry" />
        </mxCell>
        <mxCell id="NF7Rj2SjJU0Dl5G_d9Kf-31" value="状态表log_state" style="ellipse;whiteSpace=wrap;html=1;" vertex="1" parent="1">
          <mxGeometry x="310" y="240" width="120" height="80" as="geometry" />
        </mxCell>
        <mxCell id="NF7Rj2SjJU0Dl5G_d9Kf-29" value="" style="edgeStyle=orthogonalEdgeStyle;rounded=0;orthogonalLoop=1;jettySize=auto;html=1;entryX=0;entryY=0.5;entryDx=0;entryDy=0;" edge="1" parent="1" source="NF7Rj2SjJU0Dl5G_d9Kf-8" target="NF7Rj2SjJU0Dl5G_d9Kf-31">
          <mxGeometry relative="1" as="geometry">
            <mxPoint x="300" y="260" as="targetPoint" />
            <Array as="points">
              <mxPoint x="270" y="285" />
              <mxPoint x="270" y="280" />
              <mxPoint x="310" y="280" />
            </Array>
          </mxGeometry>
        </mxCell>
        <mxCell id="NF7Rj2SjJU0Dl5G_d9Kf-30" value="循环获取表a的更新信息" style="text;html=1;strokeColor=none;fillColor=none;align=center;verticalAlign=middle;whiteSpace=wrap;rounded=0;" vertex="1" parent="1">
          <mxGeometry x="210" y="230" width="60" height="50" as="geometry" />
        </mxCell>
        <mxCell id="NF7Rj2SjJU0Dl5G_d9Kf-34" style="edgeStyle=orthogonalEdgeStyle;rounded=0;orthogonalLoop=1;jettySize=auto;html=1;entryX=1.008;entryY=0.6;entryDx=0;entryDy=0;entryPerimeter=0;" edge="1" parent="1" source="NF7Rj2SjJU0Dl5G_d9Kf-21" target="NF7Rj2SjJU0Dl5G_d9Kf-31">
          <mxGeometry relative="1" as="geometry" />
        </mxCell>
        <mxCell id="NF7Rj2SjJU0Dl5G_d9Kf-35" value="写入表a的更新信息" style="text;html=1;strokeColor=none;fillColor=none;align=center;verticalAlign=middle;whiteSpace=wrap;rounded=0;" vertex="1" parent="1">
          <mxGeometry x="440" y="240" width="60" height="30" as="geometry" />
        </mxCell>
        <mxCell id="NF7Rj2SjJU0Dl5G_d9Kf-39" value="循环获取表b的更新信息" style="text;html=1;strokeColor=none;fillColor=none;align=center;verticalAlign=middle;whiteSpace=wrap;rounded=0;" vertex="1" parent="1">
          <mxGeometry x="200" y="330" width="60" height="30" as="geometry" />
        </mxCell>
        <mxCell id="NF7Rj2SjJU0Dl5G_d9Kf-40" value="" style="endArrow=classic;html=1;rounded=0;exitX=0.1;exitY=-0.1;exitDx=0;exitDy=0;exitPerimeter=0;" edge="1" parent="1" source="NF7Rj2SjJU0Dl5G_d9Kf-43" target="NF7Rj2SjJU0Dl5G_d9Kf-31">
          <mxGeometry width="50" height="50" relative="1" as="geometry">
            <mxPoint x="390" y="390" as="sourcePoint" />
            <mxPoint x="440" y="340" as="targetPoint" />
          </mxGeometry>
        </mxCell>
        <mxCell id="NF7Rj2SjJU0Dl5G_d9Kf-41" value="写入表b的更新信息" style="text;html=1;strokeColor=none;fillColor=none;align=center;verticalAlign=middle;whiteSpace=wrap;rounded=0;" vertex="1" parent="1">
          <mxGeometry x="400" y="430" width="60" height="30" as="geometry" />
        </mxCell>
      </root>
    </mxGraphModel>
  </diagram>
</mxfile>
